<svg width="14" height="24" viewBox="0 0 14 24" fill="none" xmlns="http://www.w3.org/2000/svg">
<path d="M12.6922 24C12.3475 23.9926 12.0182 23.8588 11.7682 23.6247L0 11.9911L11.7682 0.357575C12.0195 0.127724 12.3494 0 12.6922 0C13.0349 0 13.3652 0.127724 13.6165 0.357575C13.7381 0.47711 13.8343 0.619145 13.9001 0.775541C13.966 0.931937 14 1.09962 14 1.26896C14 1.4383 13.966 1.60597 13.9001 1.76237C13.8343 1.91877 13.7381 2.06081 13.6165 2.18035L3.69624 11.9911L13.6165 21.8019C13.7996 21.9819 13.9242 22.2114 13.9748 22.4614C14.0254 22.7115 13.9995 22.9707 13.9005 23.2062C13.8015 23.4416 13.6339 23.6428 13.4187 23.7842C13.2036 23.9255 12.9506 24.0006 12.6922 24Z" fill="#413E4F"/>
</svg>
