<svg width="24" height="24" viewBox="0 0 24 24" fill="none" xmlns="http://www.w3.org/2000/svg">
<path d="M17.6922 24C17.3475 23.9926 17.0182 23.8588 16.7682 23.6247L5 11.9911L16.7682 0.357575C17.0195 0.127724 17.3494 0 17.6922 0C18.0349 0 18.3652 0.127724 18.6165 0.357575C18.7381 0.47711 18.8343 0.619145 18.9001 0.775541C18.966 0.931937 19 1.09962 19 1.26896C19 1.4383 18.966 1.60597 18.9001 1.76237C18.8343 1.91877 18.7381 2.06081 18.6165 2.18035L8.69624 11.9911L18.6165 21.8019C18.7996 21.9819 18.9242 22.2114 18.9748 22.4614C19.0254 22.7115 18.9995 22.9707 18.9005 23.2062C18.8015 23.4416 18.6339 23.6428 18.4187 23.7842C18.2036 23.9255 17.9506 24.0006 17.6922 24Z" fill="white"/>
</svg>
