<svg width="288" height="53" viewBox="0 0 288 53" fill="none" xmlns="http://www.w3.org/2000/svg">
<g opacity="0.5" filter="url(#filter0_i_8_3472)">
<path fill-rule="evenodd" clip-rule="evenodd" d="M252.406 21.2545C251.367 11.5525 257.429 3.03979 267.181 0.504211C270.741 -0.421116 277.675 -0.0196018 280.468 1.27392C284.388 3.08914 287.636 7.04899 287.636 10.0122C287.636 11.4323 287.398 11.547 283.629 11.9375C282.237 12.0822 280.602 12.2973 279.993 12.4154C279.077 12.5942 278.743 12.3859 278.041 11.1957C275.073 6.16499 265.207 7.37163 262.272 13.1243C260.225 17.1373 261.03 22.1967 264.087 24.5286C267.923 27.4543 275.085 25.7516 277.862 21.2541L278.99 19.4279L282.604 18.9602C286.057 18.5131 287.142 18.3555 287.482 18.7862C287.649 18.9982 287.636 19.3529 287.636 19.8859C287.636 23.3557 282.938 29.0978 278.114 31.5233C266.011 37.6088 253.628 32.6621 252.406 21.2545ZM241.77 4.36242C242.524 4.2245 244.375 3.96639 245.882 3.78925C247.39 3.61169 248.768 3.58512 248.945 3.7302C249.122 3.8757 249.217 11.194 249.156 19.993L249.045 35.9918L246.515 36.2875C245.123 36.4498 243.178 36.6843 242.192 36.8083L240.4 37.0336V4.61294L241.77 4.36242ZM206.448 8.58121L220.577 6.83263C228.348 5.87103 235.228 5.06421 235.866 5.04017L237.025 4.99631V12.493L232.703 12.9877C230.325 13.2597 227.858 13.5811 227.22 13.7013L226.06 13.9202V38.6312L224.859 38.8711C224.199 39.0036 222.206 39.2431 220.431 39.4038L217.203 39.6965V14.9965L214.462 15.2681L208.962 15.8134L206.203 16.0872L206.326 12.334L206.448 8.58121ZM97.8468 9.73598L101.115 9.32392C102.913 9.09701 104.807 8.88445 105.323 8.85155L106.263 8.79209L106.378 25.0296C106.453 35.6443 106.347 41.2722 106.071 41.2806C105.839 41.2878 103.656 41.5666 101.221 41.8997C98.1299 42.3226 96.5528 42.7453 95.248 42.3243C93.3527 41.7128 92.0317 39.3212 87.4801 32.5642L80.7658 22.5961L80.6536 33.5516L80.541 44.5075L76.566 44.9963C74.3796 45.2649 72.3902 45.4846 72.1443 45.4846C71.7626 45.4846 71.4219 13.0185 71.8035 13.0063C71.8613 13.0046 74.1793 12.7199 76.954 12.3736C79.7287 12.0274 82.4807 11.7494 83.0694 11.7553C83.9952 11.765 85.0234 13.1011 90.677 21.6429C94.2725 27.0747 97.3563 31.5301 97.5305 31.5432C97.7047 31.5562 97.8468 26.655 97.8468 20.6514V9.73598ZM175.871 21.8095C175.871 16.975 180.191 12.0986 186.114 10.2476C190.48 8.88319 196.932 9.66344 200.442 11.9797C203.172 13.7823 205.937 18.8475 204.234 18.9294C204.06 18.9378 202.063 19.1892 199.796 19.4882C196.31 19.9479 195.599 19.9411 195.188 19.4452C193.606 17.5397 189.234 17.0542 186.45 18.4743C182.45 20.5152 184.071 22.1566 190.899 22.9778C201.06 24.1992 204.548 26.3269 204.55 31.307C204.553 38.6531 196.643 44.1899 186.837 43.7065C180.305 43.3847 175.028 39.7033 175.028 35.4676V34.266L179.351 33.7856C183.371 33.3394 183.733 33.3609 184.517 34.0952C186.992 36.411 192.693 36.2925 195.111 33.875C197.02 31.9662 195.433 30.9624 189.789 30.5082C179.799 29.7047 175.871 27.2497 175.871 21.8095ZM152.003 15.2394C152.046 15.1897 154.065 14.8801 156.49 14.5511C158.915 14.2222 161.194 13.9303 161.554 13.9029C162.341 13.843 175.451 42.0925 175.45 43.8449C175.449 44.9111 175.346 44.9558 172.222 45.2392C170.447 45.3999 168.45 45.6403 167.785 45.7731C166.64 46.0021 166.517 45.8777 165.454 43.4134C164.431 41.0432 164.235 40.831 163.248 41.0255C162.652 41.1431 159.402 41.5531 156.026 41.9369L149.887 42.6344L148.809 45.4302L147.731 48.2261L143.56 48.69C140.369 49.0448 139.318 49.1719 139.054 48.7748C138.918 48.571 138.989 48.2291 139.084 47.709C139.249 46.8094 151.649 15.6443 152.003 15.2394ZM45.1702 16.6144C45.3803 16.3929 47.2124 15.9897 49.241 15.7181C51.757 15.3813 53.1371 14.935 54.2418 15.3067C56.1583 15.9517 57.2462 19.0585 61.9978 29.4694C68.1275 42.9002 69.2996 45.8845 68.4574 45.9216C68.268 45.93 66.2583 46.1814 63.9914 46.4804C61.4253 46.8187 60.3558 46.9962 59.6989 46.5569C59.1775 46.208 58.9161 45.4704 58.3724 44.1156C57.9308 43.0144 57.3796 42.1148 57.1476 42.1165C56.008 42.1233 43.3816 43.7846 43.0876 43.9659C42.9016 44.0811 42.3833 45.2514 41.9362 46.5669C40.9793 49.3825 40.6883 49.5394 35.677 49.946C32.2553 50.2235 32.0533 50.1935 32.0533 49.4108C32.0533 48.5078 44.5465 17.271 45.1702 16.6144ZM111.765 19.9285L125.788 18.2107C133.501 17.2655 140.333 16.468 140.971 16.4381L142.131 16.3837V20.1794C142.131 22.2671 141.981 23.9752 141.799 23.9752C141.616 23.9752 139.196 24.2582 136.421 24.6045C133.647 24.9507 131.329 25.2354 131.271 25.2371C131.213 25.2388 131.165 30.8182 131.165 37.6354V50.0299L129.795 50.2762C129.041 50.4116 127.143 50.6486 125.577 50.803L122.73 51.0839V26.2519L118.407 26.7845C116.029 27.0776 113.563 27.3248 112.925 27.3332L111.765 27.3492V19.9285ZM27.4486 18.7632C27.619 18.5641 29.5312 18.171 31.6982 17.8902C36.0161 17.3301 36.2708 17.36 36.2708 18.4271C36.2708 19.0441 23.8046 50.9109 23.4031 51.3205C23.1821 51.5457 13.8694 52.7084 13.4375 52.5646C12.9246 52.3938 0 23.6235 0 22.653C0 22.1376 0.426816 21.8319 1.3707 21.6712C2.98306 21.3966 9.0386 20.686 9.13181 20.7606C9.16682 20.7889 11.1259 25.4619 13.4856 31.145C15.8449 36.8282 17.9309 41.6378 18.1211 41.8335C18.3113 42.0292 18.8781 41.0803 19.3808 39.7248C23.099 29.6946 27.19 19.0647 27.4486 18.7632ZM154.804 29.8642C155.722 27.4374 156.573 25.1823 156.696 24.8537C156.832 24.4914 157.072 24.4084 157.305 24.6429C157.824 25.1629 161.198 33.3065 160.983 33.5208C160.724 33.7801 153.518 34.6591 153.315 34.4562C153.216 34.358 153.886 32.2914 154.804 29.8642ZM46.4785 35.5886C46.3735 35.4836 47.0993 33.2074 48.0913 30.5301C49.0837 27.8528 50.0377 25.6622 50.2119 25.6622C50.3861 25.6622 51.3928 27.7023 52.4493 30.1961L54.3695 34.7299L50.5198 35.255C48.4021 35.5435 46.5835 35.6936 46.4785 35.5886Z" fill="white"/>
</g>
<defs>
<filter id="filter0_i_8_3472" x="0" y="0" width="287.636" height="55.5769" filterUnits="userSpaceOnUse" color-interpolation-filters="sRGB">
<feFlood flood-opacity="0" result="BackgroundImageFix"/>
<feBlend mode="normal" in="SourceGraphic" in2="BackgroundImageFix" result="shape"/>
<feColorMatrix in="SourceAlpha" type="matrix" values="0 0 0 0 0 0 0 0 0 0 0 0 0 0 0 0 0 0 127 0" result="hardAlpha"/>
<feOffset dy="3"/>
<feGaussianBlur stdDeviation="2"/>
<feComposite in2="hardAlpha" operator="arithmetic" k2="-1" k3="1"/>
<feColorMatrix type="matrix" values="0 0 0 0 0 0 0 0 0 0 0 0 0 0 0 0 0 0 0.25 0"/>
<feBlend mode="normal" in2="shape" result="effect1_innerShadow_8_3472"/>
</filter>
</defs>
</svg>
